<?xml version="1.0" encoding="utf-8"?>
<!-- Generator: Adobe Illustrator 18.1.1, SVG Export Plug-In . SVG Version: 6.00 Build 0)  -->
<svg version="1.1" id="Layer_1" xmlns="http://www.w3.org/2000/svg" xmlns:xlink="http://www.w3.org/1999/xlink" x="0px" y="0px"
	 viewBox="0 0 400 300" enable-background="new 0 0 400 300" xml:space="preserve">
<g>
	<path fill="none" stroke="#F2F2F2" stroke-width="3" d="M20.1,76.1l7-9.9c4.3,4.4,10.9,8.2,19.3,8.2c7.1,0,10.6-3.3,10.6-6.7
		c0-10.8-35-3.3-35-26.3c0-10.2,8.8-18.5,23.1-18.5c9.7,0,17.6,2.9,23.7,8.5l-7.1,9.4c-4.9-4.6-11.6-6.7-17.6-6.7
		c-5.6,0-8.7,2.4-8.7,6.1c0,9.7,35,3.2,35,25.8c0,11.1-7.9,19.5-24.3,19.5C34.2,85.8,25.8,81.9,20.1,76.1z"/>
	<path fill="none" stroke="#F2F2F2" stroke-width="3" d="M120.7,84.6V59.1H92v25.5H79V23.8H92v23.9h28.7V23.8h13.1v60.8H120.7z"/>
	<path fill="none" stroke="#F2F2F2" stroke-width="3" d="M142.8,54.4c0-18.4,13.4-31.5,31.8-31.5s31.8,13.1,31.8,31.5
		s-13.4,31.5-31.8,31.5S142.8,72.6,142.8,54.4z M192.9,54.4c0-11.4-7.3-19.9-18.5-19.9c-11.3,0-18.4,8.5-18.4,19.9
		c0,11.3,7.1,19.9,18.4,19.9C185.6,74.3,192.9,65.6,192.9,54.4z"/>
	<path fill="none" stroke="#F2F2F2" stroke-width="3" d="M215.4,84.6V23.8h28.4c13.2,0,20.4,9,20.4,19.6S256.9,63,243.9,63h-15.5
		v21.6H215.4z M251.2,43.4c0-5.2-3.8-8.2-9-8.2h-13.8v16.4h13.8C247.2,51.6,251.2,48.4,251.2,43.4z"/>
	<path fill="none" stroke="#F2F2F2" stroke-width="3" d="M24.2,178.9v-60.8h43v11.4h-30v12.9h29.5v11.4H37.2v25.1H24.2z"/>
	<path fill="none" stroke="#F2F2F2" stroke-width="3" d="M73.4,148.6c0-18.4,13.4-31.5,31.8-31.5s31.8,13.1,31.8,31.5
		s-13.4,31.5-31.8,31.5C86.8,180.1,73.4,166.9,73.4,148.6z M123.6,148.6c0-11.4-7.3-19.9-18.5-19.9s-18.4,8.5-18.4,19.9
		c0,11.3,7.1,19.9,18.4,19.9S123.6,159.9,123.6,148.6z"/>
	<path fill="none" stroke="#F2F2F2" stroke-width="3" d="M180.5,178.9l-12-21.6H159v21.6h-12.9v-60.8h28.4
		c12.6,0,20.4,8.4,20.4,19.6c0,10.8-6.7,16.6-13.4,18.1l13.7,23.1H180.5z M181.8,137.7c0-5.2-4-8.2-9.1-8.2h-13.5v16.4h13.5
		C177.9,145.9,181.8,142.9,181.8,137.7z"/>
	<path fill="#F2F2F2" stroke="#F2F2F2" stroke-width="3" d="M21.3,242.9c0-18.4,13.4-31.5,31.8-31.5s31.8,13.1,31.8,31.5
		c0,8.5-2.9,16.1-7.9,21.6l4.4,5.2l-9,7.4l-4.9-5.6c-4.3,2-9.1,3-14.4,3C34.7,274.4,21.3,261.1,21.3,242.9z M59.4,261.7l-6.7-7.9
		l9-7.4l6.7,7.9c2-3.3,3-7.3,3-11.7c0-11.4-7.3-19.9-18.5-19.9s-18.4,8.5-18.4,19.9c0,11.3,7.1,19.9,18.4,19.9
		C55.3,262.8,57.5,262.5,59.4,261.7z"/>
	<path fill="#F2F2F2" stroke="#F2F2F2" stroke-width="3" d="M93.9,249v-36.6H107v36.2c0,8.5,4.9,14.3,14.3,14.3
		c9.4,0,14.3-5.8,14.3-14.3v-36.2h13.2v36.5c0,15.2-9,25.4-27.5,25.4C102.9,274.4,93.9,263.9,93.9,249z"/>
	<path fill="#F2F2F2" stroke="#F2F2F2" stroke-width="3" d="M160.8,273.1v-60.8h43v11.4h-30.1v12.9h29.5v11.4h-29.5v13.8h30.1v11.4
		h-43V273.1z"/>
	<path fill="#F2F2F2" stroke="#F2F2F2" stroke-width="3" d="M214.1,273.1v-60.8h43v11.4H227v12.9h29.5v11.4H227v13.8h30.1v11.4h-43
		V273.1z"/>
	<path fill="#F2F2F2" stroke="#F2F2F2" stroke-width="3" d="M309.2,273.1l-29-39.7v39.7h-12.9v-60.8h13.4l28.1,38.2v-38.2h12.9v60.8
		H309.2z"/>
	<path fill="#F2F2F2" stroke="#F2F2F2" stroke-width="3" d="M329.6,264.6l7-9.9c4.3,4.4,10.9,8.2,19.3,8.2c7.1,0,10.6-3.3,10.6-6.7
		c0-10.8-35-3.3-35-26.3c0-10.2,8.8-18.5,23.1-18.5c9.7,0,17.6,2.9,23.7,8.5l-7.1,9.4c-4.9-4.6-11.6-6.7-17.6-6.7
		c-5.6,0-8.7,2.4-8.7,6.1c0,9.7,35,3.2,35,25.8c0,11.1-7.9,19.5-24.3,19.5C343.8,274.4,335.2,270.4,329.6,264.6z"/>
</g>
</svg>
