<?xml version="1.0" encoding="utf-8"?>
<!-- Generator: Adobe Illustrator 18.1.1, SVG Export Plug-In . SVG Version: 6.00 Build 0)  -->
<svg version="1.1" id="Layer_1" xmlns="http://www.w3.org/2000/svg" xmlns:xlink="http://www.w3.org/1999/xlink" x="0px" y="0px"
	 viewBox="0 0 90 400" enable-background="new 0 0 90 400" xml:space="preserve">
<g>
	<path fill="none" stroke="#F2F2F2" stroke-width="3" stroke-miterlimit="10" d="M75.4,394H15v-42.7h11.3v29.8h12.8V352h11.3v29.2
		h13.7v-29.8h11.3V394z"/>
	<path fill="none" stroke="#F2F2F2" stroke-width="3" stroke-miterlimit="10" d="M75.4,341.3H15v-12.8h49V303h11.3V341.3z"/>
	<path fill="none" stroke="#F2F2F2" stroke-width="3" stroke-miterlimit="10" d="M75.4,294H15v-42.7h11.3v29.8h12.8V252h11.3v29.2
		h13.7v-29.8h11.3V294z"/>
	<path fill="none" stroke="#F2F2F2" stroke-width="3" stroke-miterlimit="10" d="M45.2,244.2c-19.1,0-31.2-14.5-31.2-32.1
		c0-12.6,6.3-20.4,13.5-25l5.8,10.7c-4.3,2.7-7.9,7.9-7.9,14.3c0,10.9,8.4,18.9,19.8,18.9S65,223,65,212.1c0-5.3-2.4-10.4-4.6-12.8
		h-7.2v15.9H42v-28.8h23.2c6.9,6.1,11.4,14.7,11.4,25.7C76.5,229.7,64.2,244.2,45.2,244.2z"/>
	<path fill="none" stroke="#F2F2F2" stroke-width="3" stroke-miterlimit="10" d="M75.4,135.2l-10.2,3.7v25.9l10.2,3.8v14.7L15,159.9
		v-16.1l60.3-23.2V135.2z M27.9,151.8l26,9.4v-18.8L27.9,151.8z"/>
	<path fill="none" stroke="#F2F2F2" stroke-width="3" stroke-miterlimit="10" d="M75.4,73.4L36,102.1h39.3V115H15v-13.2l37.9-27.9
		H15V61h60.3V73.4z"/>
	<path fill="none" stroke="#F2F2F2" stroke-width="3" stroke-miterlimit="10" d="M75.4,35.1h-49v17.6H15V4.6h11.3v17.5h49V35.1z"/>
</g>
</svg>
