<?xml version="1.0" encoding="utf-8"?>
<!-- Generator: Adobe Illustrator 18.1.1, SVG Export Plug-In . SVG Version: 6.00 Build 0)  -->
<svg version="1.1" id="Layer_1" xmlns="http://www.w3.org/2000/svg" xmlns:xlink="http://www.w3.org/1999/xlink" x="0px" y="0px"
	 viewBox="0 0 90 400" enable-background="new 0 0 90 400" xml:space="preserve">
<g>
	<path fill="none" stroke="#F2F2F2" stroke-width="3" stroke-miterlimit="10" d="M23.9,4.9l9.8,7c-4.4,4.3-8.1,10.9-8.1,19.2
		c0,7.1,3.3,10.5,6.7,10.5c10.7,0,3.3-34.7,26-34.7c10,0,18.4,8.7,18.4,22.9c0,9.6-2.9,17.5-8.4,23.5L58.8,46
		c4.5-4.9,6.6-11.4,6.6-17.5c0-5.5-2.4-8.6-6.1-8.6c-9.6,0-3.2,34.6-25.7,34.6c-11,0-19.4-7.9-19.4-24.1
		C14.3,18.8,18.2,10.5,23.9,4.9z"/>
	<path fill="none" stroke="#F2F2F2" stroke-width="3" stroke-miterlimit="10" d="M15.4,76h49V58.3h11.3v48.1H64.4V88.9h-49V76z"/>
	<path fill="none" stroke="#F2F2F2" stroke-width="3" stroke-miterlimit="10" d="M15.4,131.5h24.7l35.6-23.2v14.7l-24.2,15
		l24.2,14.8v14.7l-35.6-23.1H15.4V131.5z"/>
	<path fill="none" stroke="#F2F2F2" stroke-width="3" stroke-miterlimit="10" d="M15.4,173h60.3v12.8h-49v25.5H15.4V173z"/>
	<path fill="none" stroke="#F2F2F2" stroke-width="3" stroke-miterlimit="10" d="M15.4,220.3h60.3v12.8H15.4V220.3z"/>
	<path fill="none" stroke="#F2F2F2" stroke-width="3" stroke-miterlimit="10" d="M23.9,241l9.8,7c-4.4,4.3-8.1,10.9-8.1,19.2
		c0,7.1,3.3,10.5,6.7,10.5c10.7,0,3.3-34.7,26-34.7c10,0,18.4,8.7,18.4,22.9c0,9.6-2.9,17.5-8.4,23.5l-9.4-7.1
		c4.5-4.9,6.6-11.4,6.6-17.5c0-5.5-2.4-8.6-6.1-8.6c-9.6,0-3.2,34.6-25.7,34.6c-11,0-19.4-7.9-19.4-24.1
		C14.3,254.9,18.2,246.6,23.9,241z"/>
	<path fill="none" stroke="#F2F2F2" stroke-width="3" stroke-miterlimit="10" d="M15.4,340.7h25.3v-28.5H15.4v-12.8h60.3v12.8H52
		v28.5h23.7v12.9H15.4V340.7z"/>
</g>
</svg>
