<?xml version="1.0" encoding="utf-8"?>
<!-- Generator: Adobe Illustrator 18.1.1, SVG Export Plug-In . SVG Version: 6.00 Build 0)  -->
<svg version="1.1" id="Layer_1" xmlns="http://www.w3.org/2000/svg" xmlns:xlink="http://www.w3.org/1999/xlink" x="0px" y="0px"
	 viewBox="0 0 300 300" enable-background="new 0 0 300 300" xml:space="preserve">
<path fill="none" stroke="#F2F2F2" stroke-width="3" d="M16,75.2l7.1-10c4.3,4.5,11.1,8.3,19.5,8.3c7.2,0,10.7-3.3,10.7-6.8
	c0-10.9-35.4-3.4-35.4-26.5c0-10.2,8.8-18.7,23.3-18.7c9.8,0,17.9,2.9,24,8.6l-7.3,9.6C52.9,35.1,46.3,33,40,33
	c-5.6,0-8.8,2.5-8.8,6.2c0,9.8,35.3,3.2,35.3,26.2c0,11.2-8,19.7-24.6,19.7C30.2,85,21.7,81,16,75.2z"/>
<path fill="none" stroke="#F2F2F2" stroke-width="3" d="M117.6,83.9V58.1h-29v25.8H75.5V22.4h13.1v24.1h29V22.4h13.2v61.5H117.6z"/>
<path fill="none" stroke="#F2F2F2" stroke-width="3" d="M139.9,53.2c0-18.5,13.5-31.8,32.1-31.8s32.2,13.3,32.2,31.8
	S190.7,85,172,85C153.4,85,139.9,71.7,139.9,53.2z M190.6,53.2c0-11.5-7.4-20.2-18.7-20.2s-18.6,8.7-18.6,20.2
	c0,11.4,7.3,20.2,18.6,20.2C183.3,73.4,190.6,64.6,190.6,53.2z"/>
<path fill="none" stroke="#F2F2F2" stroke-width="3" d="M213.3,83.9V22.4h28.8c13.4,0,20.6,9,20.6,19.8c0,10.7-7.4,19.8-20.6,19.8
	h-15.7v21.8h-13.1V83.9z M249.3,42.2c0-5.2-3.9-8.3-9-8.3h-13.9v16.6h13.9C245.5,50.5,249.3,47.3,249.3,42.2z"/>
<path fill="none" stroke="#F2F2F2" stroke-width="3" d="M20.2,179.1v-61.5h43.5v11.5H33.2v13H63v11.5H33.2V179h-13V179.1z"/>
<path fill="none" stroke="#F2F2F2" stroke-width="3" d="M69.8,148.4c0-18.5,13.5-31.8,32.1-31.8s32.2,13.3,32.2,31.8
	s-13.5,31.8-32.2,31.8C83.4,180.2,69.8,166.9,69.8,148.4z M120.6,148.4c0-11.5-7.4-20.2-18.7-20.2s-18.6,8.7-18.6,20.2
	c0,11.4,7.3,20.2,18.6,20.2C113.2,168.6,120.6,159.8,120.6,148.4z"/>
<path fill="none" stroke="#F2F2F2" stroke-width="3" d="M178,179.1l-12.1-21.8h-9.6v21.8h-13.1v-61.5H172c12.8,0,20.6,8.4,20.6,19.8
	c0,10.9-6.8,16.7-13.5,18.2l13.8,23.4H178V179.1z M179.3,137.4c0-5.2-4-8.3-9.2-8.3h-13.7v16.6h13.7
	C175.3,145.7,179.3,142.6,179.3,137.4z"/>
<path fill="#F2F2F2" stroke="#F2F2F2" stroke-width="2" d="M56.6,274.3L38,249.7l-4.8,5.7v18.9h-13v-61.5h13.1v27.5L55,212.9h16.1
	l-24.4,28.8l26.1,32.6H56.6z"/>
<path fill="#F2F2F2" stroke="#F2F2F2" stroke-width="2" d="M78.8,274.3v-61.5h13.1v61.5H78.8z"/>
<path fill="#F2F2F2" stroke="#F2F2F2" stroke-width="2" d="M146.4,274.3l-29.3-40.1v40.1H104v-61.5h13.5l28.5,38.6v-38.6h13v61.5
	H146.4z"/>
<path fill="#F2F2F2" stroke="#F2F2F2" stroke-width="2" d="M168.2,243.6c0-19.4,14.7-31.8,32.7-31.8c12.8,0,20.8,6.4,25.4,13.7
	l-10.9,5.9c-2.8-4.3-8-8-14.6-8c-11.2,0-19.3,8.6-19.3,20.2c0,11.6,8.1,20.2,19.3,20.2c5.4,0,10.6-2.4,13.1-4.7v-7.4h-16.2v-11.4
	H227v23.6c-6.3,7-15,11.6-26.2,11.6C183,275.5,168.2,263,168.2,243.6z"/>
<path fill="#F2F2F2" stroke="#F2F2F2" stroke-width="2" d="M233.4,265.7l7.1-10c4.3,4.5,11.1,8.3,19.5,8.3c7.2,0,10.7-3.3,10.7-6.8
	c0-10.9-35.4-3.4-35.4-26.5c0-10.2,8.8-18.7,23.3-18.7c9.8,0,17.9,2.9,24,8.6l-7.3,9.6c-5-4.6-11.6-6.7-17.9-6.7
	c-5.6,0-8.8,2.5-8.8,6.2c0,9.8,35.3,3.2,35.3,26.2c0,11.2-8,19.7-24.6,19.7C247.6,275.4,239.1,271.5,233.4,265.7z"/>
</svg>
